<svg width="20" height="20" viewBox="0 0 20 20" fill="none" xmlns="http://www.w3.org/2000/svg">
<g id="Chevron-down-1">
<path id="Vector" d="M10.5192 4.40292L18.1352 12.0556C18.2624 12.1972 18.3333 12.3853 18.3333 12.5809C18.3333 12.7766 18.2624 12.9647 18.1352 13.1063L18.1266 13.1154C18.065 13.1843 17.9908 13.2391 17.9086 13.2766C17.8263 13.3141 17.7378 13.3334 17.6483 13.3334C17.5588 13.3334 17.4703 13.3141 17.388 13.2766C17.3058 13.2391 17.2316 13.1843 17.17 13.1154L9.99854 5.9576L2.82999 13.1154C2.76835 13.1843 2.69416 13.2391 2.61193 13.2766C2.5297 13.3141 2.44114 13.3334 2.35165 13.3334C2.26217 13.3334 2.17361 13.3141 2.09138 13.2766C2.00915 13.2391 1.93496 13.1843 1.87332 13.1154L1.86471 13.1063C1.73757 12.9647 1.66665 12.7766 1.66665 12.5809C1.66665 12.3853 1.73757 12.1972 1.86471 12.0556L9.48077 4.40292C9.54774 4.32829 9.6283 4.26887 9.71755 4.22828C9.8068 4.18768 9.90288 4.16675 9.99998 4.16675C10.0971 4.16675 10.1932 4.18768 10.2824 4.22828C10.3717 4.26887 10.4522 4.32829 10.5192 4.40292Z" fill="#A7A5A6"/>
</g>
</svg>
