<svg width="36" height="36" viewBox="0 0 36 36" fill="none" xmlns="http://www.w3.org/2000/svg">
<g id="fi-rs-document" clip-path="url(#clip0_1_404)">
<path id="Vector" d="M10.5002 18H25.5002V21H10.5002V18ZM10.5002 27H21.0002V24H10.5002V27ZM33.0002 11.379V36H3.00023V4.5C3.00023 3.30653 3.47433 2.16193 4.31825 1.31802C5.16216 0.474106 6.30675 0 7.50023 0L21.6212 0L33.0002 11.379ZM22.5002 10.5H27.8792L22.5002 5.121V10.5ZM30.0002 33V13.5H19.5002V3H7.50023C7.1024 3 6.72087 3.15804 6.43957 3.43934C6.15826 3.72064 6.00023 4.10218 6.00023 4.5V33H30.0002Z" fill="#A7A5A6"/>
</g>
<defs>
<clipPath id="clip0_1_404">
<rect width="36" height="36" fill="white"/>
</clipPath>
</defs>
</svg>
