<svg width="14" height="17" viewBox="0 0 14 17" fill="none" xmlns="http://www.w3.org/2000/svg">
<g clip-path="url(#clip0_3200_44281)">
<path d="M6.99997 9.34616C7.55102 9.35605 8.09266 9.2074 8.55587 8.91917C9.01908 8.63094 9.38291 8.21616 9.601 7.72767C9.8191 7.23919 9.8816 6.6991 9.78053 6.17622C9.67946 5.65334 9.4194 5.17132 9.03348 4.79158C8.64756 4.41183 8.15325 4.15155 7.61351 4.04387C7.07377 3.9362 6.51304 3.98601 6.00274 4.18697C5.49244 4.38793 5.05567 4.73093 4.74807 5.17228C4.44047 5.61364 4.27596 6.13337 4.2755 6.66528C4.26911 7.36925 4.5524 8.04692 5.06319 8.54954C5.57398 9.05215 6.27053 9.33866 6.99997 9.34616ZM6.99997 5.41016C7.26001 5.39988 7.51729 5.46491 7.73872 5.59689C7.96015 5.72887 8.1356 5.92177 8.2425 6.15077C8.3494 6.37977 8.38287 6.6344 8.33859 6.88191C8.29431 7.12941 8.17432 7.35847 7.99405 7.53963C7.81377 7.72078 7.58146 7.84574 7.327 7.89843C7.07253 7.95112 6.80755 7.92914 6.56614 7.8353C6.32473 7.74147 6.11793 7.58007 5.97234 7.37188C5.82675 7.16369 5.74903 6.91822 5.74918 6.66705C5.74227 6.34012 5.87012 6.02391 6.10466 5.7879C6.33919 5.55189 6.66121 5.41539 6.99997 5.40839V5.41016Z" fill="white"/>
<path d="M6.47949 16.1712C6.54792 16.2373 6.62919 16.2897 6.71864 16.3255C6.80809 16.3613 6.90397 16.3797 7.0008 16.3797C7.09764 16.3797 7.19352 16.3613 7.28297 16.3255C7.37242 16.2897 7.45369 16.2373 7.52212 16.1712L11.8732 11.9721C12.8365 11.0421 13.4924 9.85738 13.7581 8.56768C14.0237 7.27798 13.8872 5.94122 13.3656 4.72642C12.8441 3.51162 11.9611 2.47333 10.8282 1.74283C9.69524 1.01233 8.36332 0.622437 7.0008 0.622437C5.63829 0.622437 4.30637 1.01233 3.17345 1.74283C2.04053 2.47333 1.15748 3.51162 0.635971 4.72642C0.114459 5.94122 -0.022104 7.27798 0.24355 8.56768C0.509204 9.85738 1.16515 11.0421 2.12844 11.9721L6.47949 16.1712ZM3.1637 3.57383C4.17941 2.59265 5.55739 2.04105 6.99452 2.04038C8.43164 2.03972 9.81017 2.59003 10.8269 3.57027C11.8435 4.55051 12.4151 5.88038 12.4158 7.26732C12.4165 8.65425 11.8463 9.98465 10.8305 10.9658L7.0008 14.6636L3.17107 10.9658C2.15709 9.9847 1.58767 8.65554 1.58767 7.26983C1.58767 5.88412 2.15709 4.55496 3.17107 3.57383H3.1637Z" fill="white"/>
</g>
<defs>
<clipPath id="clip0_3200_44281">
<rect width="14" height="16" fill="white" transform="translate(0 0.5)"/>
</clipPath>
</defs>
</svg>
