<svg width="15" height="15" viewBox="0 0 15 15" fill="none" xmlns="http://www.w3.org/2000/svg">
<g clip-path="url(#clip0_3200_44273)">
<path d="M9.99937 9.375C9.90562 9.375 9.81 9.35375 9.72062 9.30938L7.22063 8.05938C7.00875 7.95313 6.875 7.73688 6.875 7.5V3.125C6.875 2.78 7.155 2.5 7.5 2.5C7.845 2.5 8.125 2.78 8.125 3.125V7.11375L10.2794 8.19125C10.5881 8.34562 10.7131 8.72125 10.5587 9.03C10.4494 9.24875 10.2288 9.375 9.99937 9.375ZM7.5 15C3.36437 15 0 11.6356 0 7.5C0 3.36437 3.36437 0 7.5 0C11.6356 0 15 3.36437 15 7.5C15 11.6356 11.6356 15 7.5 15ZM7.5 1.25C4.05375 1.25 1.25 4.05375 1.25 7.5C1.25 10.9462 4.05375 13.75 7.5 13.75C10.9462 13.75 13.75 10.9462 13.75 7.5C13.75 4.05375 10.9462 1.25 7.5 1.25Z" fill="white"/>
</g>
<defs>
<clipPath id="clip0_3200_44273">
<rect width="15" height="15" fill="white"/>
</clipPath>
</defs>
</svg>
