<svg width="50" height="50" viewBox="0 0 50 50" fill="none" xmlns="http://www.w3.org/2000/svg">
<path d="M0.500002 25C0.500003 11.469 11.469 0.500008 25 0.500009C38.531 0.50001 49.5 11.469 49.5 25C49.5 38.531 38.531 49.5 25 49.5C11.469 49.5 0.500001 38.531 0.500002 25Z" stroke="#693D9C"/>
<g clip-path="url(#clip0_3200_44141)">
<path d="M24.8905 18.3821L18.1621 24.9998C19.8498 26.655 23.2028 29.9623 24.8905 31.6174L25.7398 30.796C24.2218 29.3072 22.2136 27.3239 20.4419 25.5841L31.3975 25.5841L31.3975 24.4157L20.4419 24.4157L25.7398 19.2129L24.8905 18.3821Z" fill="#693D9C"/>
</g>
<defs>
<clipPath id="clip0_3200_44141">
<rect width="10" height="10" fill="white" transform="translate(18 25) rotate(-45)"/>
</clipPath>
</defs>
</svg>
