<svg id="Layer_1" data-name="Layer 1" xmlns="http://www.w3.org/2000/svg" viewBox="0 0 245.5 56.17"><path d="M29 56.13a1.69 1.69 0 01-1.7-1.7 1.77 1.77 0 011.7-1.8 1.79 1.79 0 011.8 1.8 1.92 1.92 0 01-1.8 1.7m12.4-3.9a1.4 1.4 0 10-1.4-1.4 1.43 1.43 0 001.4 1.4m9.4-8.8a1.77 1.77 0 001.8-1.7 1.86 1.86 0 00-1.8-1.8 1.71 1.71 0 00-1.7 1.8 1.58 1.58 0 001.7 1.7m3.3-12.3A2.1 2.1 0 1052 29a2.05 2.05 0 002.1 2.1m-2.8-12.4a2.45 2.45 0 100-4.9 2.39 2.39 0 00-2.4 2.5 2.31 2.31 0 002.4 2.4m-9.9-8.8a2.8 2.8 0 002.8-2.8 2.86 2.86 0 00-2.8-2.8 2.73 2.73 0 00-2.8 2.8 2.8 2.8 0 002.8 2.8M29 6.63a3.2 3.2 0 003.2-3.1A3.22 3.22 0 0029 .33a3.08 3.08 0 00-3.1 3.2 3 3 0 003.1 3.1m-13.1 4.3a3.88 3.88 0 003.9-3.8 3.9 3.9 0 00-3.9-3.9 3.82 3.82 0 00-3.8 3.9 3.68 3.68 0 003.8 3.8m-9.5 8.5a3.14 3.14 0 003.2-3.1 3.22 3.22 0 00-3.2-3.2 3.08 3.08 0 00-3.1 3.2 3.05 3.05 0 003.1 3.1m-3.1 12.4A2.8 2.8 0 006.1 29a2.86 2.86 0 00-2.8-2.8 2.8 2.8 0 100 5.6m3.5 12.3a2.45 2.45 0 100-4.9 2.39 2.39 0 00-2.4 2.5 2.43 2.43 0 002.4 2.4m9.1 8.9a2.1 2.1 0 10-2.1-2.1 2.05 2.05 0 002.1 2.1m17.4-14.9a1.77 1.77 0 001.8-1.7 1.79 1.79 0 00-1.8-1.8 1.71 1.71 0 00-1.7 1.8 1.75 1.75 0 001.7 1.7m4.3-7a2.1 2.1 0 10-2.1-2.1 2.11 2.11 0 002.1 2.1M33.3 24a2.45 2.45 0 100-4.9 2.39 2.39 0 00-2.4 2.5 2.43 2.43 0 002.4 2.4m-8.5.4a2.8 2.8 0 002.8-2.8 2.86 2.86 0 00-2.8-2.8 2.73 2.73 0 00-2.8 2.8 2.8 2.8 0 002.8 2.8m4.2 7a2.45 2.45 0 100-4.9 2.39 2.39 0 00-2.4 2.5 2.26 2.26 0 002.4 2.4m-8.4 0a2.45 2.45 0 100-4.9 2.39 2.39 0 00-2.4 2.5 2.26 2.26 0 002.4 2.4m4.2 7.1a2.1 2.1 0 10-2.1-2.1 2.18 2.18 0 002.1 2.1m-.3 8.5a1.77 1.77 0 001.8-1.7 1.79 1.79 0 00-1.8-1.8 1.71 1.71 0 00-1.7 1.8 1.69 1.69 0 001.7 1.7m-7.2-4.1a2.05 2.05 0 002.1-2.1 2.11 2.11 0 00-2.1-2.1 2.1 2.1 0 100 4.2m-4.5-7.2a2.45 2.45 0 100-4.9 2.39 2.39 0 00-2.4 2.5 2.31 2.31 0 002.4 2.4m-.1-8.4a2.8 2.8 0 002.8-2.8 2.86 2.86 0 00-2.8-2.8 2.73 2.73 0 00-2.8 2.8 2.86 2.86 0 002.8 2.8m4.1-7a3.15 3.15 0 100-6.3 3.15 3.15 0 000 6.3m7.7-4.2a3.15 3.15 0 100-6.3 3.08 3.08 0 00-3.1 3.2 3.12 3.12 0 003.1 3.1m8.9-.4a2.8 2.8 0 002.8-2.8 2.86 2.86 0 00-2.8-2.8 2.73 2.73 0 00-2.8 2.8 2.73 2.73 0 002.8 2.8m7.9 3.9a2.45 2.45 0 100-4.9 2.39 2.39 0 00-2.4 2.5 2.37 2.37 0 002.4 2.4m3.8 7a2.05 2.05 0 002.1-2.1 2.11 2.11 0 00-2.1-2.1 2.1 2.1 0 000 4.2M45 35a1.77 1.77 0 001.8-1.7 1.79 1.79 0 00-1.8-1.8 1.71 1.71 0 00-1.7 1.8A1.69 1.69 0 0045 35m-4.3 7.2a1.4 1.4 0 10-1.4-1.4 1.37 1.37 0 001.4 1.4m-7.3 4.4a1.4 1.4 0 10-1.4-1.4 1.37 1.37 0 001.4 1.4m133.4-22.47a8.54 8.54 0 018.8-8.7 8.11 8.11 0 017.4 4.3l-3.1 1.8a4.65 4.65 0 00-4.4-2.6 5.1 5.1 0 00-5.2 5.2 5 5 0 005.2 5.2 4.75 4.75 0 004.4-2.6l3.1 1.8a8.38 8.38 0 01-7.5 4.3 8.52 8.52 0 01-8.7-8.7m-1.3-8.3L159.1 33c-1.6 4.2-4.5 6.4-8.1 6.1v-3.4c2.3.1 3.6-1 4.4-3.2l.1-.2-7-16.5h3.8l5.1 12.1 4.3-12.1zm-19.8 0v16.6h-3.5v-10.3l-7.8 10.3h-3v-16.6h3.5v10.8l8.1-10.8zm-17.6 8.3a8.44 8.44 0 01-8.3 8.7A6.84 6.84 0 01114 30v9h-3.5V15.83h2.4l1.2 2.4a6.72 6.72 0 015.8-2.8c4.5-.1 8.2 3.8 8.2 8.7m-3.5 0a5.3 5.3 0 10-10.6 0 5.3 5.3 0 1010.6 0m-18.2-8.3v16.6h-3.5v-10.3l-7.8 10.3h-3v-16.6h3.4v10.8l8.1-10.8zM66.6 21a11.91 11.91 0 0012.2 12.1 11.35 11.35 0 0010-5.6l-3.3-1.9a7.49 7.49 0 01-6.7 3.8 8 8 0 01-8.3-8.3 7.93 7.93 0 018.3-8.3 7.49 7.49 0 016.7 3.8l3.3-1.9A12 12 0 0066.6 21" fill="#4d008c"/><path d="M68.29 50.61v-9h1.86v6.21l4.11-6.21h1.79v9h-1.87v-5.87l-3.94 5.87zm13.94 0v-2.34h-2.91v2.34h-1.7v-6.43h1.7v2.47h2.91v-2.47h1.7v6.43zm14.41-3.23a3.78 3.78 0 01-.77 2.43 2.59 2.59 0 01-2.12 1 2.08 2.08 0 01-2-1.12v2.93h-1.7v-2.97a2.08 2.08 0 01-2 1.12 2.57 2.57 0 01-2.11-1 4.18 4.18 0 010-4.86 2.57 2.57 0 012.11-1 2.07 2.07 0 012 1.15V41.6h1.7v3.54a2.07 2.07 0 012-1.15 2.59 2.59 0 012.12 1 3.78 3.78 0 01.77 2.39zm-9.89 0a1.83 1.83 0 00.47 1.3 1.55 1.55 0 001.17.51 1.56 1.56 0 001.2-.51 1.86 1.86 0 00.46-1.3v-.07a1.75 1.75 0 00-.5-1.25 1.57 1.57 0 00-1.16-.48 1.55 1.55 0 00-1.17.51 1.8 1.8 0 00-.47 1.29zm8.31 0a1.8 1.8 0 00-.47-1.29 1.55 1.55 0 00-1.18-.51 1.57 1.57 0 00-1.16.48 1.79 1.79 0 00-.5 1.25v.07a1.87 1.87 0 00.47 1.3 1.63 1.63 0 002.37 0 1.83 1.83 0 00.47-1.3zm2.47 0a3.38 3.38 0 01.93-2.38 3.21 3.21 0 014.62 0 3.6 3.6 0 010 4.82 3.22 3.22 0 01-4.63 0 3.37 3.37 0 01-.92-2.44zm1.59 0a1.83 1.83 0 00.48 1.3 1.52 1.52 0 001.17.51 1.54 1.54 0 001.19-.51 1.86 1.86 0 00.46-1.3 1.8 1.8 0 00-.48-1.3 1.59 1.59 0 00-1.17-.5 1.52 1.52 0 00-1.17.51 1.81 1.81 0 00-.48 1.29zm12.71 0a3.73 3.73 0 01-.78 2.43 2.59 2.59 0 01-2.12 1 2.08 2.08 0 01-2-1.12v2.93h-1.69v-8.4h1.69v1a2.08 2.08 0 012-1.15 2.59 2.59 0 012.12 1 3.73 3.73 0 01.78 2.31zm-1.58 0a1.81 1.81 0 00-.48-1.29 1.55 1.55 0 00-1.18-.51 1.53 1.53 0 00-1.15.48 1.8 1.8 0 00-.51 1.25v.15a1.72 1.72 0 00.49 1.24 1.61 1.61 0 001.18.49 1.55 1.55 0 001.17-.51 1.83 1.83 0 00.48-1.3zm6.38 3.23l-1.95-3.76v3.76h-1.62v-6.43H115l2.35 4.49 2.35-4.49h1.93v6.43H120v-3.76l-2 3.76zm6.22-3.23a3.73 3.73 0 01.78-2.43 2.56 2.56 0 012.11-1 2.07 2.07 0 012 1.15v-1h1.7v6.43h-1.7v-1a2.08 2.08 0 01-2 1.12 2.56 2.56 0 01-2.11-1 3.73 3.73 0 01-.78-2.27zm1.58 0a1.83 1.83 0 00.48 1.3 1.52 1.52 0 001.17.51 1.54 1.54 0 001.19-.51 1.87 1.87 0 00.47-1.3 1.76 1.76 0 00-.49-1.3 1.57 1.57 0 00-1.17-.5 1.52 1.52 0 00-1.17.51 1.81 1.81 0 00-.48 1.29zm6.57 3.23v-6.43h1.69V49h2.69v-4.82h1.71v4.91h.39v3.4h-1.1v-1.88zm9.49-2.17l3.31-4.26h1.65v6.43h-1.7v-3.88l-3.19 3.88h-1.77v-6.43h1.7zm6.19-1.06a3.38 3.38 0 01.93-2.41 3 3 0 012.3-1 3.07 3.07 0 012.31 1 3.34 3.34 0 01.93 2.41 3.39 3.39 0 01-.91 2.41 3.08 3.08 0 01-2.33 1 3 3 0 01-2.3-1 3.37 3.37 0 01-.93-2.41zm1.58 0a1.83 1.83 0 00.48 1.3 1.52 1.52 0 001.17.51 1.54 1.54 0 001.19-.51 1.87 1.87 0 00.47-1.3 1.76 1.76 0 00-.49-1.3 1.57 1.57 0 00-1.17-.5 1.52 1.52 0 00-1.17.51 1.81 1.81 0 00-.48 1.29zM159 50.61v-2.34h-2.91v2.34h-1.7v-6.43h1.7v2.47H159v-2.47h1.7v6.43zm7.87 0v-2.34H164v2.34h-1.7v-6.43h1.7v2.47h2.91v-2.47h1.7v6.43zm3.28 0v-6.43h1.7v1.93h1.85a2.16 2.16 0 011.7.63 2.4 2.4 0 01.57 1.67 2.19 2.19 0 01-.58 1.61 2.24 2.24 0 01-1.66.59zm1.7-1.37h1.64a.79.79 0 00.88-.86.81.81 0 00-.89-.87h-1.63zm5.08 1.37v-6.43h1.72v6.43zm8.88-1.04a3.43 3.43 0 01-1.06.89 3.37 3.37 0 01-1.57.31 3.13 3.13 0 01-2.33-1 3.45 3.45 0 010-4.8 3.13 3.13 0 012.33-1 3.05 3.05 0 012.14.81 3.27 3.27 0 011 2.12v1h-4.91a2.22 2.22 0 00.62 1.1 1.6 1.6 0 001.13.43 2.26 2.26 0 001.77-.77zM182 45.76a2.08 2.08 0 00-.61 1.09h3.49a1.79 1.79 0 00-.53-1.09 1.7 1.7 0 00-1.21-.44 1.61 1.61 0 00-1.14.44zm14.94 2.45a3.1 3.1 0 01-1.07 1.87 3.2 3.2 0 01-2.1.69 3.13 3.13 0 01-2.33-1 3.45 3.45 0 010-4.8 3.13 3.13 0 012.33-1 3.29 3.29 0 012.12.69 2.94 2.94 0 011.05 1.88h-1.51a1.31 1.31 0 00-.53-.75 1.91 1.91 0 00-1.13-.32 1.59 1.59 0 00-1.23.54 2.1 2.1 0 000 2.7 1.59 1.59 0 001.23.55 1.52 1.52 0 001.66-1.07zm2.93.23l3.31-4.26h1.65v6.43h-1.71v-3.88l-3.18 3.88h-1.77v-6.43h1.7zm12.66-.23a3.25 3.25 0 01-5.53 1.57 3.45 3.45 0 010-4.8 3.14 3.14 0 012.34-1 3.25 3.25 0 012.11.69 2.9 2.9 0 011.06 1.88H211a1.31 1.31 0 00-.53-.75 1.91 1.91 0 00-1.13-.32 1.57 1.57 0 00-1.23.54 2.1 2.1 0 000 2.7 1.58 1.58 0 001.23.55 1.52 1.52 0 001.66-1.06zm.7-2.51v-1.52h5v1.52h-1.63v4.91h-1.69V45.7zm11.61 3.87a3 3 0 01-2.62 1.2 3.14 3.14 0 01-2.34-1 3.45 3.45 0 010-4.8 3.14 3.14 0 012.34-1 3 3 0 012.13.81 3.27 3.27 0 011 2.12v1h-4.91a2.22 2.22 0 00.62 1.1 1.6 1.6 0 001.14.43 2.24 2.24 0 001.76-.77zm-3.77-3.81a2.15 2.15 0 00-.61 1.09H224a1.74 1.74 0 00-.53-1.09 1.67 1.67 0 00-1.2-.44 1.62 1.62 0 00-1.2.44zm9.08 4.85l-2-3.76v3.76h-1.63v-6.43h1.93l2.36 4.49 2.35-4.49h1.93v6.43h-1.63v-3.76l-2 3.76zm6.56 0v-6.43h1.7v1.93h1.85a2.15 2.15 0 011.7.63 2.4 2.4 0 01.57 1.67A2.23 2.23 0 01242 50a2.28 2.28 0 01-1.67.59zm1.7-1.37h1.65a.79.79 0 00.88-.86.81.81 0 00-.9-.87h-1.63zm5.09 1.37v-6.43h1.71v6.43z" fill="#8599c0"/></svg>