<svg version="1.1" id="Слой_1" xmlns="http://www.w3.org/2000/svg" xmlns:xlink="http://www.w3.org/1999/xlink" x="0" y="0" width="418.522" height="127.56" viewBox="0 0 418.522 127.56" xml:space="preserve"><path d="M65.061 71.18c3.112 0 5.645-2.508 5.645-5.595 0-3.094-2.533-5.614-5.645-5.614-3.12 0-5.566 2.466-5.566 5.614-.001 3.137 2.445 5.595 5.566 5.595m-29.895 49.387c2.667 0 4.838-2.15 4.838-4.795 0-2.651-2.17-4.812-4.838-4.812-2.675 0-4.771 2.114-4.771 4.812 0 2.687 2.095 4.795 4.771 4.795M6.361 72.064c3.558 0 6.45-2.866 6.45-6.395 0-3.534-2.893-6.416-6.45-6.416C2.795 59.254 0 62.074 0 65.67c0 3.587 2.795 6.394 6.361 6.394m8.118 28.069c3.113 0 5.645-2.508 5.645-5.597 0-3.091-2.532-5.614-5.645-5.614-3.12 0-5.566 2.469-5.566 5.614 0 3.14 2.446 5.597 5.566 5.597m20.659-75.812c4.89 0 8.869-3.941 8.869-8.792 0-4.861-3.979-8.823-8.869-8.823-4.904 0-8.746 3.878-8.746 8.823 0 4.93 3.842 8.792 8.746 8.792m-21.584 19.44c4 0 7.257-3.226 7.257-7.194 0-3.978-3.257-7.218-7.257-7.218-4.014 0-7.158 3.172-7.158 7.218 0 4.037 3.145 7.194 7.158 7.194m42.114 43.657c2.667 0 4.837-2.151 4.837-4.795 0-2.65-2.169-4.812-4.837-4.812-2.675 0-4.771 2.114-4.771 4.812.001 2.688 2.096 4.795 4.771 4.795M45.88 71.18c3.112 0 5.644-2.508 5.644-5.596 0-3.094-2.531-5.613-5.644-5.613-3.12 0-5.566 2.466-5.566 5.613 0 3.138 2.446 5.596 5.566 5.596m9.593-16.172c3.556 0 6.451-2.866 6.451-6.394 0-3.536-2.895-6.417-6.451-6.417-3.566 0-6.36 2.82-6.36 6.417-.001 3.587 2.794 6.394 6.36 6.394m-.606 51.699c2.223 0 4.032-1.792 4.032-3.996 0-2.209-1.809-4.01-4.032-4.01-2.229 0-3.975 1.762-3.975 4.01 0 2.242 1.746 3.996 3.975 3.996M38.42 97.42c2.667 0 4.836-2.15 4.836-4.795 0-2.653-2.169-4.812-4.836-4.812-2.675 0-4.771 2.114-4.771 4.812.001 2.687 2.097 4.795 4.771 4.795M28.013 80.963c3.113 0 5.645-2.509 5.645-5.597 0-3.094-2.532-5.614-5.645-5.614-3.12 0-5.566 2.469-5.566 5.614 0 3.14 2.446 5.597 5.566 5.597m-.006-19.158c3.556 0 6.45-2.866 6.45-6.394 0-3.537-2.895-6.416-6.45-6.416-3.566 0-6.36 2.82-6.36 6.416-.001 3.588 2.794 6.394 6.36 6.394m9.234-16.058c4 0 7.256-3.225 7.256-7.194 0-3.978-3.256-7.218-7.256-7.218-4.014 0-7.156 3.174-7.156 7.218 0 4.034 3.142 7.194 7.156 7.194m17.701-9.733c4.002 0 7.256-3.226 7.256-7.194 0-3.978-3.254-7.219-7.256-7.219-4.014 0-7.156 3.173-7.156 7.219 0 4.035 3.142 7.194 7.156 7.194m61.188 6.145c3.113 0 5.644-2.509 5.644-5.594 0-3.096-2.531-5.616-5.644-5.616-3.122 0-5.566 2.469-5.566 5.616 0 3.137 2.444 5.594 5.566 5.594m-22.56-20.24c3.558 0 6.45-2.866 6.45-6.394 0-3.536-2.892-6.417-6.45-6.417-3.566 0-6.36 2.82-6.36 6.417 0 3.587 2.794 6.394 6.36 6.394m-28.521-7.504c4 0 7.257-3.226 7.257-7.194C72.306 3.244 69.049 0 65.049 0c-4.014 0-7.156 3.175-7.156 7.221 0 4.034 3.142 7.194 7.156 7.194m49.856 84.234c2.223 0 4.031-1.792 4.031-3.997 0-2.209-1.808-4.009-4.031-4.009-2.228 0-3.977 1.762-3.977 4.009 0 2.243 1.749 3.997 3.977 3.997m7.587-28.186c2.667 0 4.838-2.15 4.838-4.795 0-2.652-2.17-4.812-4.838-4.812-2.675 0-4.771 2.114-4.771 4.812.001 2.688 2.096 4.795 4.771 4.795m-57.421 57.096c-2.228 0-3.975-1.754-3.975-3.996 0-2.248 1.747-4.012 3.975-4.012 2.223 0 4.031 1.802 4.031 4.012 0 2.205-1.808 3.996-4.031 3.996m28.521-8.829c1.777 0 3.225-1.433 3.225-3.195a3.222 3.222 0 00-3.225-3.211c-1.783 0-3.181 1.411-3.181 3.211.001 1.793 1.399 3.195 3.181 3.195M75.084 54.208c3.112 0 5.644-2.508 5.644-5.594 0-3.096-2.532-5.617-5.644-5.617-3.122 0-5.563 2.469-5.563 5.617 0 3.137 2.441 5.594 5.563 5.594m9.783 16.171c2.668 0 4.836-2.15 4.836-4.795 0-2.652-2.168-4.812-4.836-4.812-2.675 0-4.771 2.114-4.771 4.812 0 2.688 2.095 4.795 4.771 4.795m-9.772 16.054c2.223 0 4.032-1.792 4.032-3.996 0-2.211-1.809-4.012-4.032-4.012-2.228 0-3.976 1.763-3.976 4.012 0 2.241 1.748 3.996 3.976 3.996m.039-51.22c3.558 0 6.45-2.866 6.45-6.394 0-3.537-2.892-6.417-6.45-6.417-3.566 0-6.36 2.82-6.36 6.417-.001 3.587 2.794 6.394 6.36 6.394m18.124 8.834c3.11 0 5.644-2.508 5.644-5.596 0-3.094-2.534-5.613-5.644-5.613-3.12 0-5.565 2.467-5.565 5.613 0 3.139 2.446 5.596 5.565 5.596m8.696 16.06c2.667 0 4.837-2.151 4.837-4.798 0-2.649-2.169-4.81-4.837-4.81-2.675 0-4.771 2.114-4.771 4.81.001 2.691 2.096 4.798 4.771 4.798m-.19 19.254c2.223 0 4.032-1.792 4.032-3.996 0-2.209-1.809-4.01-4.032-4.01-2.228 0-3.976 1.762-3.976 4.01 0 2.241 1.748 3.996 3.976 3.996m-9.857 16.457c1.777 0 3.226-1.433 3.226-3.197 0-1.768-1.449-3.209-3.226-3.209-1.783 0-3.181 1.414-3.181 3.209 0 1.793 1.398 3.197 3.181 3.197m-16.749 10.089c1.779 0 3.225-1.433 3.225-3.197a3.221 3.221 0 00-3.225-3.209c-1.784 0-3.181 1.411-3.181 3.209 0 1.793 1.397 3.197 3.181 3.197M381.35 54.364c0-11.327 8.592-19.995 20.068-19.995 7.451 0 13.91 3.879 16.953 9.809l-7.068 4.104c-1.674-3.572-5.398-5.853-9.959-5.853-6.689 0-11.783 5.093-11.783 11.935 0 6.841 5.094 11.934 11.783 11.934 4.561 0 8.285-2.354 10.111-5.853l7.066 4.029c-3.193 6.003-9.652 9.883-17.104 9.883-11.475 0-20.067-8.743-20.067-19.993m-2.908-19.007l-14.594 39.228c-3.574 9.655-10.186 14.52-18.553 13.987v-7.678c5.326.305 8.213-2.203 10.113-7.298l.23-.532-15.967-37.706h8.742l11.557 27.673 9.729-27.673h8.743zm-45.248 0v38.011h-8.059V49.831l-17.867 23.538h-6.947V35.357h8.059v24.737l18.504-24.737h6.31zm-40.115 19.007c0 11.327-8.59 19.994-18.928 19.994-5.93 0-10.416-2.434-13.305-6.388v20.602h-8.21V35.357h5.552l2.658 5.474c2.889-4.029 7.375-6.463 13.305-6.463 10.338.001 18.928 8.744 18.928 19.996m-8.209 0c0-7.07-5.17-12.163-12.012-12.163-6.841 0-12.012 5.092-12.012 12.163 0 7.069 5.17 12.162 12.012 12.162 6.842 0 12.012-5.093 12.012-12.162m-41.526-19.007v38.011h-8.06V49.831l-17.867 23.538h-6.947V35.357h8.059v24.737l18.504-24.737h6.311zm-91.079 12.041c0 15.433 11.631 27.596 27.824 27.596 9.806 0 18.474-5.019 22.88-12.771l-7.601-4.334c-2.738 5.247-8.59 8.59-15.28 8.59-11.479 0-19.082-8.132-19.082-19.08 0-10.946 7.603-19.081 19.082-19.081 6.689 0 12.466 3.345 15.28 8.589l7.601-4.409c-4.484-7.755-13.151-12.694-22.88-12.694-16.193 0-27.824 12.162-27.824 27.594m1.079 63.123c2.775.373 4.434-.913 4.434-6.398v-13.71h15.877v23.697h-3.893V94.137h-8.092v9.919c0 8.631-3.926 10.493-8.326 10.054v-3.589zm39.881-13.337v16.926h-3.587v-10.765l-8.666 10.765h-2.811V97.184h3.588v10.731l8.666-10.731zm21.567 13.472v7.99h-3.589v-4.536h-13.744V97.184h3.657v13.472h7.245V97.184h3.655v13.472zm10.599.543c2.031 0 3.555-.915 4.367-2.099l3.013 1.759c-1.556 2.303-4.096 3.692-7.413 3.692-5.585 0-9.208-3.826-9.208-8.904 0-5.009 3.623-8.903 8.937-8.903 5.043 0 8.496 4.062 8.496 8.937 0 .508-.066 1.049-.133 1.522h-13.474c.574 2.641 2.707 3.996 5.415 3.996m4.502-6.974c-.508-2.911-2.64-4.164-4.84-4.164-2.742 0-4.603 1.625-5.112 4.164h9.952zm21.973-7.041v16.926h-3.588v-10.765l-8.666 10.765h-2.808V97.184h3.588v10.73l8.666-10.73h2.808zm-12.287-5.552h9.479v3.183h-9.479v-3.183z" fill="#9B202A"/></svg>