<svg width="18" height="18" viewBox="0 0 18 18" fill="none" xmlns="http://www.w3.org/2000/svg">
<path fill-rule="evenodd" clip-rule="evenodd" d="M0.75 7.51057C0.75 3.80702 3.77208 0.804688 7.5 0.804688C11.2279 0.804688 14.25 3.80702 14.25 7.51057C14.25 9.0939 13.6976 10.5491 12.7739 11.6963L17.5606 16.4517L16.5 17.5055L11.7133 12.75C10.5585 13.6677 9.09375 14.2165 7.5 14.2165C3.77208 14.2165 0.75 11.2142 0.75 7.51057ZM7.5 2.29488C4.60051 2.29488 2.25 4.63003 2.25 7.51057C2.25 10.3911 4.60051 12.7263 7.5 12.7263C10.3995 12.7263 12.75 10.3911 12.75 7.51057C12.75 4.63003 10.3995 2.29488 7.5 2.29488Z" fill="#A7A5A6"/>
</svg>
